<svg width="313" height="313" viewBox="0 0 313 313" fill="none" xmlns="http://www.w3.org/2000/svg">
<circle class="logo-bg" cx="156.5" cy="156.5" r="156.5" fill="#4B4B4B"/>
<path class="logo-line" fill-rule="evenodd" clip-rule="evenodd" d="M219.868 254.776L215.662 248.34L213.559 240.913L214.82 231.506L219.447 223.088L223.653 219.128L230.803 214.672L245.523 211.205L257.72 209.72L251.411 201.303L243.421 194.866L232.485 189.915L225.335 184.964L217.765 174.071L215.242 165.654L211.456 153.771L206.409 147.335L209.353 146.84L204.306 145.354L202.624 132.481L201.362 110.2L199.259 80.4929L203.044 63.6586L205.568 55.7367L219.027 36.9219L208.512 29H207.25L169.398 56.7269L156.78 54.7464L158.463 78.0172L139.537 79.5026L115.563 75.0465L105.049 75.5416L92.0112 84.4539L73.9262 110.2L65.9351 124.063L60.4675 133.471L59.6264 145.849L55 159.218L80.2349 166.644L90.7492 168.625L95.376 168.129L105.47 169.12L112.62 172.586L120.61 173.081L119.348 181.003L121.873 181.498L120.19 191.401L123.555 193.381L124.396 200.313L120.61 204.274L124.396 208.73L128.601 209.225L125.237 214.177L120.19 218.138L116.405 219.128L110.517 218.633L101.264 214.672L90.3288 212.195L91.1695 216.652L89.9084 220.613L90.7492 225.069L89.0667 231.011L84.0201 234.476L86.123 238.437V243.884L83.1789 253.291L84.4407 261.708H92.4316L94.5344 263.194L105.89 265.669L106.732 262.699L119.348 266.164L126.498 266.659L134.49 270.125L136.593 272.601L144.163 275.077L147.107 277.057L152.575 278.047L158.042 280.523L162.669 282.008L174.025 261.213L172.342 260.223L173.183 256.757L178.651 251.806L189.166 250.815L192.109 251.806L194.633 241.903V235.962L198.418 234.476L203.886 241.903L219.868 254.776Z" stroke="white" stroke-width="3" stroke-linecap="square" stroke-linejoin="bevel"/>
</svg>
